<?xml version="1.0" encoding="utf-8"?>
<!-- Generator: Adobe Illustrator 16.0.0, SVG Export Plug-In . SVG Version: 6.00 Build 0)  -->
<!DOCTYPE svg PUBLIC "-//W3C//DTD SVG 1.1//EN" "http://www.w3.org/Graphics/SVG/1.1/DTD/svg11.dtd">
<svg version="1.1" id="Calque_1" xmlns="http://www.w3.org/2000/svg" xmlns:xlink="http://www.w3.org/1999/xlink" x="0px" y="0px"
	 width="800px" height="600px" viewBox="0 0 800 600" enable-background="new 0 0 800 600" xml:space="preserve">
<g id="zombie">
	<path d="M25.81,0c5.484,0.444,9.805,5.13,9.805,10.833c0,5.806-4.483,10.543-10.11,10.838v2.225
		c1.536,0.247,2.713,1.607,2.713,3.241c0,0.4-0.072,0.783-0.2,1.138l1.996,1.174c3.085-4.748,9.308-6.297,14.211-3.412
		c4.893,2.879,6.7,9.124,4.233,14.212c3.386-6.714,1.031-15.037-5.456-18.852c-1.621-0.954-3.35-1.536-5.1-1.776
		c0.669-1.663,1.041-3.483,1.041-5.392C38.943,6.653,33.134,0.451,25.81,0L25.81,0z"/>
	<path d="M24.022,0.008c-7.288,0.491-13.06,6.672-13.06,14.22c0,1.855,0.348,3.627,0.981,5.251
		c-1.696,0.253-3.377,0.829-4.953,1.756C0.549,25.025-1.811,33.26,1.476,39.951c-2.374-5.065-0.553-11.226,4.297-14.08
		c4.935-2.903,11.201-1.314,14.265,3.503l1.926-1.132c-0.121-0.345-0.183-0.718-0.183-1.105c0-1.564,1.078-2.875,2.516-3.2v-2.271
		c-5.577-0.348-10.003-5.063-10.003-10.833C14.294,5.156,18.572,0.489,24.022,0.008L24.022,0.008z"/>
	<path d="M24.645,13.656c-2.815,0.065-5.41,1.042-7.54,2.631c0.17,0.256,0.353,0.505,0.545,0.743
		c0.193,0.238,0.397,0.467,0.611,0.685c0.214,0.218,0.438,0.426,0.672,0.623c0.171,0.145,0.356,0.275,0.537,0.407
		c1.572-1.053,3.455-1.669,5.483-1.669c2.029,0,3.906,0.616,5.479,1.669c0.181-0.132,0.365-0.263,0.537-0.407
		c0.234-0.197,0.458-0.404,0.672-0.623c0.214-0.218,0.418-0.447,0.611-0.685s0.376-0.487,0.546-0.743
		c-2.208-1.646-4.913-2.631-7.845-2.631c-0.07,0-0.139-0.001-0.209,0C24.714,13.657,24.678,13.654,24.645,13.656L24.645,13.656z"/>
	<path d="M11.814,25.626c-0.296,2.77,0.22,5.652,1.686,8.24c1.466,2.588,3.657,4.488,6.158,5.612
		c0.135-0.279,0.254-0.565,0.359-0.855c0.107-0.291,0.199-0.582,0.277-0.88c0.079-0.298,0.146-0.602,0.195-0.905
		c0.038-0.224,0.058-0.45,0.077-0.677c-1.679-0.86-3.144-2.214-4.159-4.005c-1.013-1.789-1.431-3.755-1.323-5.67
		c-0.204-0.094-0.406-0.19-0.615-0.27c-0.284-0.107-0.571-0.202-0.864-0.282c-0.292-0.08-0.588-0.143-0.888-0.195
		C12.419,25.688,12.117,25.648,11.814,25.626L11.814,25.626z"/>
	<path d="M38.184,25.789c-0.302,0.022-0.604,0.061-0.903,0.112s-0.595,0.116-0.888,0.195c-0.291,0.08-0.583,0.174-0.866,0.282
		c-0.209,0.08-0.408,0.181-0.612,0.274c0.108,1.912-0.309,3.88-1.324,5.669c-1.013,1.79-2.479,3.14-4.159,4.002
		c0.022,0.227,0.041,0.452,0.079,0.677c0.051,0.305,0.114,0.606,0.191,0.904c0.079,0.298,0.171,0.594,0.278,0.883
		c0.104,0.291,0.224,0.573,0.358,0.853c2.501-1.125,4.692-3.021,6.157-5.608C37.96,31.444,38.48,28.559,38.184,25.789L38.184,25.789
		z"/>
	<path d="M22.575,29.292l-1.939,1.145c2.493,5.097,0.701,11.36-4.204,14.245c-4.88,2.871-11.071,1.361-14.171-3.333
		c4.023,6.315,12.249,8.386,18.721,4.578c1.568-0.922,2.891-2.112,3.952-3.473c1.082,1.432,2.45,2.676,4.082,3.636
		c6.48,3.812,14.715,1.733,18.733-4.598c-3.094,4.712-9.294,6.238-14.183,3.361c-4.935-2.903-6.719-9.227-4.156-14.341l-2.016-1.187
		c-0.589,0.668-1.444,1.092-2.395,1.092C24.034,30.417,23.166,29.979,22.575,29.292L22.575,29.292z"/>
</g>
<g id="survivor">
	<path d="M47.661,40l-2.978-2.956c-0.439-0.436-1.204-0.436-1.642,0l-0.32,0.317l-10.18-10.104l1.134-1.127
		c0.343-0.339,0.533-0.793,0.533-1.275c0-0.481-0.189-0.935-0.532-1.275l-1.666-1.653c-0.686-0.682-1.883-0.681-2.569,0
		l-1.135,1.126L12.484,7.35c-1.263-1.255-2.847-2.145-4.581-2.576C6.471,4.419,5.161,3.683,4.116,2.646L1.715,0.262L1.433,0
		L0.241,0.042l-0.2,2.566c-0.312,4.014,1.156,7.95,4.024,10.798l16.979,16.854l-1.135,1.126c-0.343,0.34-0.533,0.794-0.533,1.275
		s0.189,0.936,0.533,1.275l1.666,1.655c0.343,0.34,0.799,0.527,1.285,0.527c0.485,0,0.942-0.187,1.285-0.528l1.135-1.127
		l10.179,10.104l-0.513,0.509c-0.45,0.449-0.45,1.18,0,1.63l2.979,2.957C38.146,49.88,38.437,50,38.746,50
		c0.31,0,0.601-0.12,0.821-0.337l8.093-8.033C48.113,41.181,48.113,40.449,47.661,40L47.661,40z M13.783,17.046
		c-0.167,0.166-0.385,0.249-0.605,0.249c-0.218,0-0.437-0.083-0.605-0.249l-4.234-4.205c-0.334-0.331-0.334-0.869,0-1.201
		c0.333-0.332,0.875-0.332,1.209,0l4.235,4.205C14.118,16.178,14.118,16.716,13.783,17.046L13.783,17.046z M35.704,32.799
		l1.21,1.202l-4.841,4.805l-1.209-1.202L35.704,32.799L35.704,32.799z M22.935,34.39c-0.021,0.021-0.045,0.031-0.075,0.031
		l-1.741-1.684c-0.034-0.035-0.034-0.113,0-0.148l9.532-9.461h0.15l1.665,1.653c0.035,0.035,0.036,0.113,0,0.148l-8.396,8.333h0
		L22.935,34.39L22.935,34.39z M28.91,30.86l2.421-2.403l0.743,0.738L27.234,34l-0.743-0.739L28.91,30.86L28.91,30.86z
		 M35.704,42.408l4.841-4.804l0.966,0.959l-4.842,4.804L35.704,42.408L35.704,42.408z"/>
</g>
</svg>
